# xmcd
#
# Track frame offsets:
#	150
#	20055
#	41787
#	67408
#	86329
#	110257
#	132299
#	154278
#	173701
#	198405
#	219992
#	242251
#	264687
#	286434
#	307276
#
# Disc length: 4345 seconds
#
# Revision: 1
# Processed by: cddbd v1.5.1PL0 Copyright (c) Steve Scherf et al.
# Submitted via: CDex 1.50Beta5
#
DISCID=e010f70f
DTITLE=hitomi - mybest
DYEAR=1900
DGENRE=Pop
TTITLE0=LOVE 2000
TTITLE1=there is…
TTITLE2=キミにKISS
TTITLE3=FAT FREE
TTITLE4=MARIA
TTITLE5=体温
TTITLE6=IS IT YOU?
TTITLE7=by myself
TTITLE8=innocence
TTITLE9=I am
TTITLE10=Understanding
TTITLE11=INNER CHILD
TTITLE12=プラスティックタイムマシン
TTITLE13=GO TO THE TOP
TTITLE14=君のとなり
EXTD=
EXTT0=
EXTT1=
EXTT2=
EXTT3=
EXTT4=
EXTT5=
EXTT6=
EXTT7=
EXTT8=
EXTT9=
EXTT10=
EXTT11=
EXTT12=
EXTT13=
EXTT14=
PLAYORDER=
